<svg height="512pt" viewBox="-121 0 512 512" width="512pt" xmlns="http://www.w3.org/2000/svg"><path d="m225 180h-180c-8.285156 0-15-6.714844-15-15v-90c0-8.285156 6.714844-15 15-15h180c8.285156 0 15 6.714844 15 15v90c0 8.285156-6.714844 15-15 15zm0 0" fill="#cde1e6"/><path d="m225 60h-90v120h90c8.285156 0 15-6.714844 15-15v-90c0-8.285156-6.714844-15-15-15zm0 0" fill="#b4d2d7"/><path d="m135 512c-57.898438 0-105-47.101562-105-105v-242c0-8.285156 6.714844-15 15-15h180c8.285156 0 15 6.714844 15 15v242c0 57.898438-47.101562 105-105 105zm0 0" fill="#fc0023"/><path d="m225 150h-90v362c57.898438 0 105-47.101562 105-105v-242c0-8.285156-6.714844-15-15-15zm0 0" fill="#c9001c"/><g fill="#323c3c"><path d="m225 240h-60c-8.285156 0-15-6.714844-15-15s6.714844-15 15-15h60c8.285156 0 15 6.714844 15 15s-6.714844 15-15 15zm0 0"/><path d="m225 300h-60c-8.285156 0-15-6.714844-15-15s6.714844-15 15-15h60c8.285156 0 15 6.714844 15 15s-6.714844 15-15 15zm0 0"/><path d="m225 420h-60c-8.285156 0-15-6.714844-15-15s6.714844-15 15-15h60c8.285156 0 15 6.714844 15 15s-6.714844 15-15 15zm0 0"/><path d="m225 360h-60c-8.285156 0-15-6.714844-15-15s6.714844-15 15-15h60c8.285156 0 15 6.714844 15 15s-6.714844 15-15 15zm0 0"/></g><path d="m255 90h-240c-8.285156 0-15-6.714844-15-15v-60c0-8.285156 6.714844-15 15-15h240c8.285156 0 15 6.714844 15 15v60c0 8.285156-6.714844 15-15 15zm0 0" fill="#e1ebf0"/><path d="m255 0h-120v90h120c8.285156 0 15-6.714844 15-15v-60c0-8.285156-6.714844-15-15-15zm0 0" fill="#cde1e6"/></svg>